<?xml version="1.0" encoding="utf-8"?>
<!-- Generator: Adobe Illustrator 18.0.0, SVG Export Plug-In . SVG Version: 6.00 Build 0)  -->
<!DOCTYPE svg PUBLIC "-//W3C//DTD SVG 1.1//EN" "http://www.w3.org/Graphics/SVG/1.1/DTD/svg11.dtd">
<svg version="1.1" id="Layer_1" xmlns="http://www.w3.org/2000/svg" xmlns:xlink="http://www.w3.org/1999/xlink" x="0px" y="0px"
	 viewBox="0 0 2000 1500" enable-background="new 0 0 2000 1500" xml:space="preserve">
<g>
	<g>
		<polygon fill="#414042" points="1527.8,409.5 1500.1,409.5 1500.1,249.5 498.8,249.5 498.8,409.5 471,409.5 471,221.8 
			1527.8,221.8 		"/>
	</g>
	<g>
		<polygon fill="#414042" points="1529,1278.2 472.2,1278.2 472.2,1135.2 499.9,1135.2 499.9,1250.5 1501.2,1250.5 1501.2,1135.2 
			1529,1135.2 		"/>
	</g>
	<g>
		<path fill="#EC008C" d="M483,1088.5c-3.2,0-5.6-0.9-7.4-2.7c-1.7-1.8-2.6-4.2-2.6-7V948.5c0-2.9,0.9-5.2,2.7-6.9
			c1.8-1.7,4.2-2.6,7-2.6s5.2,0.9,7,2.6c1.8,1.7,2.7,4.1,2.7,6.9v122.7H558c2.9,0,5.2,0.8,6.9,2.4c1.7,1.6,2.6,3.7,2.6,6.3
			c0,2.6-0.9,4.7-2.6,6.3c-1.7,1.6-4.1,2.4-6.9,2.4H483z"/>
		<path fill="#EC008C" d="M636.2,1085.1c-8.5-3.8-15.9-9.1-22-15.9c-6.1-6.9-10.9-15-14.3-24.5c-3.4-9.5-5.1-19.8-5.1-31.1
			c0-11.4,1.7-21.8,5.1-31.2c3.4-9.4,8.2-17.5,14.3-24.2c6.1-6.7,13.5-12,22-15.7c8.5-3.8,18-5.6,28.4-5.6c10.3,0,19.7,1.9,28.3,5.6
			c8.6,3.8,16,9,22.1,15.7c6.1,6.7,10.9,14.8,14.3,24.2c3.4,9.4,5.1,19.8,5.1,31.2c0,11.3-1.7,21.6-5.1,31.1
			c-3.4,9.5-8.2,17.6-14.3,24.5c-6.1,6.9-13.5,12.2-22.1,15.9c-8.6,3.8-18,5.6-28.3,5.6C654.2,1090.7,644.8,1088.8,636.2,1085.1z
			 M628.4,1054.9c4.3,5.2,9.5,9.3,15.6,12.2c6.1,3,12.9,4.4,20.6,4.4c7.7,0,14.6-1.5,20.7-4.4c6.1-3,11.3-7,15.6-12.2
			c4.3-5.2,7.6-11.3,9.9-18.4c2.3-7.1,3.5-14.7,3.5-23c0-8.2-1.2-15.9-3.5-22.9c-2.3-7-5.6-13.1-10-18.2c-4.3-5.1-9.6-9.2-15.7-12.1
			c-6.1-3-13-4.4-20.5-4.4c-7.7,0-14.6,1.5-20.7,4.4c-6.1,3-11.3,7-15.6,12.1c-4.3,5.1-7.6,11.2-9.9,18.2c-2.3,7-3.5,14.6-3.5,22.9
			c0,8.2,1.2,15.9,3.5,23C620.8,1043.6,624.1,1049.7,628.4,1054.9z"/>
		<path fill="#EC008C" d="M783.2,1088.5c-2.9,0-5.2-0.8-6.8-2.4c-1.7-1.6-2.5-3.6-2.5-6.1c0-2.3,0.8-4.6,2.4-6.9l77.8-116.9h-66.6
			c-2.9,0-5.2-0.8-6.9-2.3c-1.7-1.5-2.6-3.7-2.6-6.4c0-2.6,0.9-4.7,2.6-6.3c1.7-1.6,4-2.4,6.9-2.4h83.3c2.9,0,5.1,0.8,6.7,2.3
			c1.6,1.5,2.4,3.5,2.4,6c0,1.2-0.2,2.5-0.7,3.9c-0.4,1.4-1.2,3-2.4,4.6l-77,115.6h69.6c2.9,0,5.2,0.8,6.9,2.4
			c1.7,1.6,2.6,3.7,2.6,6.3c0,2.6-0.9,4.7-2.6,6.3c-1.7,1.6-4,2.4-6.9,2.4H783.2z"/>
		<path fill="#EC008C" d="M940.2,1088.5c-3.2,0-5.6-0.9-7.3-2.7c-1.7-1.8-2.5-4.2-2.5-7V948.7c0-2.9,0.9-5.2,2.6-7
			c1.7-1.8,4.2-2.7,7.4-2.7h81.1c2.7,0,4.9,0.8,6.6,2.4c1.7,1.6,2.5,3.7,2.5,6.3c0,2.6-0.8,4.7-2.5,6.3c-1.7,1.6-3.9,2.4-6.6,2.4
			H950v47.1h48.1c2.7,0,5,0.8,6.8,2.4c1.8,1.6,2.7,3.7,2.7,6.3c0,2.6-0.9,4.7-2.7,6.3c-1.8,1.6-4.1,2.4-6.8,2.4H950v50.5h71.5
			c2.9,0,5.1,0.8,6.7,2.4c1.6,1.6,2.4,3.7,2.4,6.3c0,2.6-0.8,4.7-2.4,6.3c-1.6,1.6-3.8,2.4-6.7,2.4H940.2z"/>
		<path fill="#EC008C" d="M1098.3,1079c0,2.9-0.9,5.2-2.7,6.9c-1.8,1.7-4.2,2.6-7,2.6s-5.2-0.9-7-2.6c-1.8-1.7-2.7-4-2.7-6.9V950.4
			c0-3.3,0.7-6.1,2.2-8.2c1.4-2.2,3.8-3.3,7.2-3.3c3.5,0,6.3,1.6,8.5,4.8l75.9,106.9V948.5c0-2.9,0.9-5.2,2.7-6.8
			c1.8-1.7,4.2-2.5,7-2.5c2.7,0,5.1,0.8,6.9,2.5c1.9,1.7,2.8,3.9,2.8,6.8V1079c0,2.9-0.8,5.2-2.4,6.9c-1.6,1.7-3.8,2.6-6.7,2.6
			c-2,0-3.7-0.4-5.1-1.1c-1.4-0.7-2.7-2-4-3.7L1098.3,979V1079z"/>
		<path fill="#EC008C" d="M1324.2,1029.8c-2.9,0-5.2-0.8-7-2.4c-1.8-1.6-2.7-3.6-2.7-6.1c0-2.6,0.9-4.7,2.7-6.4
			c1.8-1.7,4.2-2.5,7-2.5h40.3c4.6,0,7.8,1.3,9.4,3.8c1.7,2.5,2.5,6.1,2.5,10.7c0,9-1.4,17.3-4.3,25c-2.9,7.7-7.1,14.5-12.6,20.3
			c-5.5,5.8-12.2,10.3-20.2,13.6c-7.9,3.3-16.9,4.9-26.9,4.9c-10,0-19.2-1.8-27.6-5.4c-8.5-3.6-15.8-8.8-21.9-15.5
			c-6.1-6.7-11-14.8-14.5-24.3c-3.5-9.5-5.3-20-5.3-31.5c0-11.7,1.8-22.3,5.3-31.8c3.5-9.5,8.5-17.6,14.7-24.3
			c6.3-6.7,13.7-11.9,22.2-15.6c8.5-3.7,17.7-5.5,27.5-5.5c11.3,0,21.2,2,29.7,6c8.5,4,16.2,10.1,23,18.3c2.3,2.3,3.9,4.4,4.7,6.3
			c0.8,1.9,1.2,3.6,1.2,5.2c0,2.9-0.9,5.2-2.6,6.8c-1.7,1.7-3.8,2.5-6.3,2.5c-1.6,0-3.1-0.4-4.7-1.2c-1.5-0.8-3.1-2.3-4.9-4.7
			c-5.1-6.9-10.8-12-17.1-15.3c-6.4-3.3-13.9-4.9-22.5-4.9c-7.8,0-14.8,1.5-21,4.4c-6.2,3-11.5,7-15.7,12.3
			c-4.3,5.2-7.6,11.4-9.9,18.5c-2.3,7.2-3.5,14.9-3.5,23.1c0,8.1,1.2,15.6,3.6,22.7c2.4,7,5.8,13.1,10.2,18.2
			c4.4,5.1,9.7,9.2,15.8,12.1c6.1,3,13,4.4,20.5,4.4c6.5,0,12.4-1,17.8-2.9c5.3-1.9,9.9-4.7,13.8-8.3c3.8-3.6,6.8-8,8.8-13.2
			c2-5.2,3-11,3-17.3H1324.2z"/>
		<path fill="#EC008C" d="M1437.8,1088.5c-3.2,0-5.6-0.9-7.3-2.7c-1.7-1.8-2.5-4.2-2.5-7V948.7c0-2.9,0.9-5.2,2.6-7
			c1.7-1.8,4.2-2.7,7.4-2.7h81.1c2.7,0,4.9,0.8,6.6,2.4c1.7,1.6,2.5,3.7,2.5,6.3c0,2.6-0.8,4.7-2.5,6.3c-1.7,1.6-3.9,2.4-6.6,2.4
			h-71.5v47.1h48.1c2.7,0,5,0.8,6.8,2.4c1.8,1.6,2.7,3.7,2.7,6.3c0,2.6-0.9,4.7-2.7,6.3c-1.8,1.6-4.1,2.4-6.8,2.4h-48.1v50.5h71.5
			c2.9,0,5.1,0.8,6.7,2.4c1.6,1.6,2.4,3.7,2.4,6.3c0,2.6-0.8,4.7-2.4,6.3c-1.6,1.6-3.8,2.4-6.7,2.4H1437.8z"/>
	</g>
	<g>
		<path fill="#414042" d="M487.7,680.1c-4.9,0-8.6-1.4-11.2-4.1c-2.6-2.8-4-6.3-4-10.7V466.6c0-4.4,1.4-7.9,4.1-10.6
			c2.8-2.6,6.3-4,10.7-4c4.4,0,8,1.3,10.7,4c2.8,2.6,4.1,6.2,4.1,10.6v187.1h99.8c4.4,0,7.9,1.2,10.6,3.6c2.6,2.4,4,5.6,4,9.6
			c0,4-1.3,7.2-4,9.6c-2.6,2.4-6.2,3.6-10.6,3.6H487.7z"/>
		<path fill="#414042" d="M771.3,592.9c0,19.6,5.2,34.8,15.7,45.5c10.5,10.7,25.2,16,44.1,16c19,0,33.7-5.5,44.3-16.4
			s15.9-26.4,15.9-46.4v-125c0-4.4,1.4-7.9,4.1-10.6c2.8-2.6,6.3-4,10.7-4c4.4,0,8,1.3,10.7,4c2.8,2.6,4.1,6.2,4.1,10.6v128.9
			c0,13-2.1,24.9-6.4,35.7c-4.3,10.8-10.4,20.1-18.2,27.8c-7.8,7.7-17.2,13.7-28.3,18c-11,4.3-23.4,6.4-37,6.4
			c-13.7,0-26-2.1-37-6.3c-11-4.2-20.4-10.1-28.3-17.8c-7.8-7.7-13.8-16.9-18-27.4c-4.2-10.6-6.3-22.4-6.3-35.4V466.6
			c0-4.4,1.4-7.9,4.1-10.6c2.8-2.6,6.3-4,10.7-4c4.4,0,8,1.3,10.7,4c2.8,2.6,4.1,6.2,4.1,10.6V592.9z"/>
		<path fill="#414042" d="M1103.6,664.9c0,4.4-1.4,8.1-4.1,10.9c-2.8,2.9-6.3,4.3-10.7,4.3c-4.4,0-8-1.4-10.7-4.3
			c-2.8-2.9-4.1-6.5-4.1-10.9V467.2c0-4.4,1.4-8,4.1-10.9c2.8-2.9,6.3-4.3,10.7-4.3c4.4,0,8,1.4,10.7,4.3c2.8,2.9,4.1,6.5,4.1,10.9
			v99.5l96.5-108.8c1.8-2,3.6-3.5,5.5-4.5c1.9-1,4.1-1.5,6.8-1.5c4,0,7.3,1.4,10.1,4.1c2.8,2.8,4.1,5.9,4.1,9.4c0,1.8-0.3,3.6-1,5.5
			c-0.7,1.9-2,3.9-4,6.1l-72.7,81.3l81,94.2c2.6,2.9,4.4,5.2,5.3,6.9c0.9,1.8,1.3,3.6,1.3,5.6c0,4.9-1.7,8.5-5.1,11.1
			c-3.4,2.5-6.7,3.8-9.8,3.8c-5.1,0-9.3-2-12.6-5.9l-82-94.5l-23.5,26.4V664.9z"/>
		<path fill="#414042" d="M1390.8,680.1c-4.9,0-8.5-1.4-11.1-4.1c-2.5-2.8-3.8-6.3-3.8-10.7V466.9c0-4.4,1.3-8,4-10.7
			c2.6-2.8,6.4-4.1,11.2-4.1h123.6c4.2,0,7.5,1.2,10.1,3.6c2.5,2.4,3.8,5.6,3.8,9.6c0,4-1.3,7.2-3.8,9.6c-2.5,2.4-5.9,3.6-10.1,3.6
			h-109.1v71.7h73.4c4.2,0,7.7,1.2,10.4,3.6c2.8,2.4,4.1,5.6,4.1,9.6c0,4-1.4,7.2-4.1,9.6c-2.8,2.4-6.2,3.6-10.4,3.6h-73.4v77h109.1
			c4.4,0,7.8,1.2,10.2,3.6c2.4,2.4,3.6,5.6,3.6,9.6c0,4-1.2,7.2-3.6,9.6c-2.4,2.4-5.8,3.6-10.2,3.6H1390.8z"/>
	</g>
	<g>
		<g>
			<path fill="#414042" d="M1256.9,807.5h256.7c7.3,0,14.1-5.3,14.7-12.6c0.7-8.2-5.7-15.2-13.8-15.2h-257.6
				c-7.7,0-13.9,6.2-13.9,13.9v0C1243.1,801.3,1249.3,807.5,1256.9,807.5z"/>
		</g>
		<g>
			<path fill="#414042" d="M747.8,807.5H486.4c-7.4,0-14.1-5.3-14.8-12.6c-0.7-8.2,5.8-15.1,13.9-15.1h262.3
				c7.7,0,13.9,6.2,13.9,13.9v0C761.7,801.3,755.5,807.5,747.8,807.5z"/>
		</g>
	</g>
	<g>
		<path fill="#EC008C" d="M986.8,684.4l-77.6,183.7c-18.3-19.5-29.5-45.7-29.5-74.5c0-30.1,12.2-57.5,32-77.3
			C931,697.1,957.5,685,986.8,684.4z"/>
		<path fill="#EC008C" d="M1036.7,686.9l-87.9,208.4c-9.4-3.7-18.2-8.7-26-14.7l82.9-196.2h7.6
			C1021.3,684.4,1029.2,685.2,1036.7,686.9z"/>
		<path fill="#EC008C" d="M1083.8,710.3L1002.4,903h-13.4c-8.1,0-15.9-0.9-23.5-2.6l87.9-208.4
			C1064.6,696.4,1074.8,702.6,1083.8,710.3z"/>
		<path fill="#EC008C" d="M1122.4,793.7c0,30.2-12.2,57.5-32,77.3c-17.9,18-42.1,29.8-69.1,31.7l75.6-179.1
			C1112.9,742.6,1122.4,767,1122.4,793.7z"/>
		<path fill="#EC008C" d="M866.3,807.7L818,856c-14.9,14.9-40.5,4.4-40.5-16.8v-8.5c0-10.8,2.5-21.2,5.4-31.6
			c0.7-2.6,1.1-5.3,1.1-8.2c0-2.8-0.4-5.6-1.1-8.2c-2.9-10.4-5.4-20.8-5.4-31.6v-1.6c0-21.1,25.6-31.7,40.5-16.8l48.3,48.3
			C873.6,788.5,873.6,800.4,866.3,807.7z"/>
		<path fill="#EC008C" d="M1222.5,751c0,9.4-2.7,18.5-6.4,27.2c-1.5,3.6-2.3,7.5-2.3,11.6c0,4.1,0.8,8.1,2.3,11.6
			c3.6,8.7,6.4,17.7,6.4,27.2v10.6c0,21.1-25.5,31.7-40.5,16.8l-48.2-48.3c-7.3-7.3-7.3-19.2,0-26.5l48.2-48.3
			c15-14.9,40.5-4.3,40.5,16.8V751z"/>
	</g>
</g>
</svg>
